<svg width="136" height="75" viewBox="0 0 136 75" fill="none" xmlns="http://www.w3.org/2000/svg">
<path d="M13.7363 37.8305L6.10126 16.8714C5.95937 16.4817 5.38506 16.5853 5.38506 16.9975V37.7021C5.38506 37.9071 5.21839 38.0715 5.01569 38.0715H0.369364C0.164412 38.0715 0 37.9071 0 37.7021V0.369364C0 0.166664 0.164412 0 0.369364 0H4.84452C4.99993 0 5.13956 0.0968454 5.19137 0.24324L12.7746 21.1101C12.9165 21.4997 13.4908 21.3983 13.4908 20.9839V0.369364C13.4908 0.166664 13.6575 0 13.8624 0H18.5065C18.7114 0 18.8759 0.164412 18.8759 0.369364V37.7021C18.8759 37.9071 18.7114 38.0715 18.5065 38.0715H14.0831C13.9277 38.0738 13.7881 37.9769 13.7363 37.8305Z" fill="#FFD744"/>
<path d="M21.601 37.7044V0.369364C21.601 0.164412 21.7654 0 21.9704 0H26.6145C26.8194 0 26.9838 0.164412 26.9838 0.369364V37.7022C26.9838 37.9071 26.8194 38.0715 26.6145 38.0715H21.9704C21.7654 38.0738 21.601 37.9071 21.601 37.7044Z" fill="#FFD744"/>
<path d="M36.0536 37.7044V5.44361C36.0536 5.23866 35.8869 5.07425 35.6842 5.07425H30.0807C29.8757 5.07425 29.7113 4.90984 29.7113 4.70489V0.369364C29.7113 0.164412 29.878 0 30.0807 0H47.5331C47.7381 0 47.9025 0.164412 47.9025 0.369364V4.70263C47.9025 4.90759 47.7381 5.072 47.5331 5.072H41.8057C41.6008 5.072 41.4364 5.23866 41.4364 5.44136V37.7022C41.4364 37.9071 41.2697 38.0715 41.067 38.0715H36.4229C36.2202 38.0738 36.0536 37.9071 36.0536 37.7044Z" fill="#FFD744"/>
<path d="M50.6299 37.7044V0.369364C50.6299 0.164412 50.7943 0 50.9992 0H60.0847C62.5847 0 64.6815 0.878366 66.3751 2.63284C68.0711 4.38732 68.9269 6.51117 68.9269 9.02239V12.5674C68.9269 15.966 67.5373 18.5988 64.7603 20.4524C64.6207 20.5447 64.5599 20.7159 64.6117 20.8758L70.08 37.5873C70.1589 37.826 69.981 38.0715 69.7287 38.0715H64.8121C64.6499 38.0715 64.5081 37.9679 64.4585 37.8125L59.4991 22.0064C59.4518 21.8533 59.3077 21.7474 59.1455 21.7474H56.3798C56.1748 21.7474 56.0104 21.9141 56.0104 22.1168V37.7022C56.0104 37.9071 55.8438 38.0715 55.6411 38.0715H50.997C50.7943 38.0738 50.6299 37.9071 50.6299 37.7044ZM62.6162 15.7836C62.6297 15.77 62.641 15.7565 62.6522 15.7408C62.9743 15.3241 63.213 14.8579 63.3504 14.3421C63.4901 13.8151 63.5419 13.2183 63.5419 12.5696V9.00663C63.5419 7.83097 63.2265 6.86477 62.5802 6.14631C61.9338 5.4256 61.0239 5.05848 59.855 5.05848H56.3798C56.1748 5.05848 56.0104 5.22515 56.0104 5.42785V16.5898C56.0104 16.7948 56.1748 16.9592 56.3798 16.9592H59.8032C60.9293 16.957 61.8662 16.5606 62.6162 15.7836Z" fill="#FFD744"/>
<path d="M73.0553 37.6278L80.8029 0.295041C80.8367 0.123872 80.9898 0 81.1633 0H85.8096C85.983 0 86.1339 0.119368 86.1699 0.290536L94.4469 37.6233C94.4987 37.8531 94.323 38.0738 94.0865 38.0738H89.0528C88.8749 38.0738 88.7217 37.9477 88.6902 37.772L87.2825 30.1797C87.251 30.0041 87.0979 29.8779 86.9199 29.8779H80.5439C80.366 29.8779 80.2128 30.0041 80.1813 30.1797L78.7737 37.772C78.7421 37.9477 78.589 38.0738 78.4111 38.0738H73.4224C73.1837 38.0738 73.008 37.8576 73.0553 37.6278ZM81.5709 24.8195H85.7826C86.0145 24.8195 86.188 24.61 86.1452 24.3825L84.0394 13.2138C83.9628 12.8129 83.3885 12.8129 83.3141 13.2138L81.2083 24.3825C81.1655 24.61 81.3389 24.8195 81.5709 24.8195Z" fill="#FFD744"/>
<path d="M105.814 0C108.228 0 110.325 0.860348 112.073 2.59906C113.838 4.33777 114.712 6.40982 114.712 8.85122V28.6595C114.712 31.3982 113.872 33.6639 112.194 35.4207C110.516 37.1954 108.329 38.0715 105.656 38.0715H97.6337C97.4288 38.0715 97.2643 37.9049 97.2643 37.7022V0.369364C97.2643 0.164412 97.4288 0 97.6337 0H105.814ZM109.329 28.6775V8.85122C109.329 7.77917 108.944 6.90305 108.192 6.20036C107.422 5.49767 106.514 5.14632 105.429 5.14632H103.019C102.814 5.14632 102.649 5.31299 102.649 5.51569V32.6797C102.649 32.8847 102.814 33.0491 103.019 33.0491H105.273C107.983 33.0153 109.329 31.5761 109.329 28.6775Z" fill="#FFD744"/>
<path d="M119.041 3.87382C119.901 2.68014 120.969 1.7297 122.278 1.03827C123.586 0.346842 124.946 0 126.356 0C127.732 0 129.025 0.277023 130.23 0.846835C131.435 1.40088 132.433 2.1779 133.241 3.14635C134.034 4.11481 134.584 5.10128 134.894 6.12153C135.187 7.12377 135.343 8.22961 135.343 9.42329V28.4771C135.343 29.6009 135.239 30.5874 135.032 31.4162C134.825 32.263 134.394 33.1977 133.723 34.2518C133.052 35.29 132.07 36.1887 130.762 36.9499C129.453 37.6931 128.041 38.0738 126.527 38.0738C124.771 38.0738 123.172 37.6233 121.708 36.7247C120.246 35.8261 119.212 34.8058 118.645 33.6639C118.059 32.5221 117.715 31.6076 117.611 30.914C117.507 30.2225 117.44 29.4095 117.44 28.4771V9.42329C117.44 8.29943 117.561 7.31521 117.8 6.45036C118.025 5.5855 118.456 4.72065 119.041 3.87382ZM129.37 6.83098C128.629 5.82874 127.665 5.30848 126.46 5.30848C125.823 5.30848 125.203 5.4819 124.584 5.84451C123.964 6.20712 123.534 6.58774 123.293 7.02017C123.052 7.45259 122.897 7.88502 122.811 8.33321C122.741 8.78366 122.708 9.16203 122.708 9.45707V28.5289C122.708 28.9095 122.741 29.3081 122.793 29.7563C122.845 30.2068 123.156 30.8104 123.687 31.5716C124.221 32.3329 125.151 32.7135 126.46 32.7135C127.131 32.7135 127.732 32.5581 128.268 32.2293C128.802 31.9185 129.199 31.5558 129.44 31.1392C129.681 30.7248 129.836 30.3442 129.904 29.9635C129.973 29.5829 130.025 29.0987 130.025 28.5108V9.47509C130.025 8.73186 129.991 8.21385 129.94 7.90079C129.904 7.608 129.696 7.24539 129.37 6.83098Z" fill="#FFD744"/>
<path d="M36.79 47.3169H98.5549C98.8972 47.3169 99.0549 47.7403 98.7981 47.9655L67.9225 74.9088C67.7828 75.0304 67.5756 75.0304 67.436 74.9088L36.5468 47.9633C36.2878 47.7403 36.4477 47.3169 36.79 47.3169Z" fill="#FFD744"/>
</svg>
