<svg width="383" height="216" viewBox="0 0 383 216" fill="none" xmlns="http://www.w3.org/2000/svg">
<g clip-path="url(#clip0_30_2)">
<path d="M38.85 106.95L17.26 47.6998C16.86 46.5998 15.23 46.8898 15.23 48.0598V106.6C15.23 107.18 14.76 107.64 14.19 107.64H1.06001C0.480013 107.64 0.0200195 107.17 0.0200195 106.6V1.04977C0.0200195 0.469766 0.490013 0.00976562 1.06001 0.00976562H13.71C14.15 0.00976562 14.54 0.279766 14.69 0.699766L36.13 59.6898C36.53 60.7898 38.16 60.4998 38.16 59.3298V1.04977C38.16 0.469766 38.63 0.00976562 39.2 0.00976562H52.33C52.91 0.00976562 53.37 0.479766 53.37 1.04977V106.59C53.37 107.17 52.9 107.63 52.33 107.63H39.83C39.39 107.63 39 107.36 38.85 106.95Z" fill="#101010"/>
<path d="M61.0801 106.59V1.04977C61.0801 0.469766 61.5501 0.00976562 62.1201 0.00976562H75.2501C75.8301 0.00976562 76.2901 0.479766 76.2901 1.04977V106.59C76.2901 107.17 75.8201 107.63 75.2501 107.63H62.1201C61.5501 107.63 61.0801 107.17 61.0801 106.59Z" fill="#101010"/>
<path d="M101.94 106.59V15.3898C101.94 14.8098 101.47 14.3498 100.9 14.3498H85.0598C84.4798 14.3498 84.0098 13.8798 84.0098 13.2998V1.04977C84.0098 0.469766 84.4798 0.00976562 85.0598 0.00976562H134.4C134.98 0.00976562 135.44 0.479766 135.44 1.04977V13.2998C135.44 13.8798 134.97 14.3498 134.4 14.3498H118.21C117.63 14.3498 117.16 14.8198 117.16 15.3898V106.59C117.16 107.17 116.69 107.63 116.12 107.63H102.99C102.41 107.63 101.94 107.17 101.94 106.59Z" fill="#101010"/>
<path d="M143.15 106.59V1.04977C143.15 0.469766 143.62 0.00976562 144.19 0.00976562H169.87C176.93 0.00976562 182.86 2.48977 187.66 7.44977C192.45 12.4098 194.87 18.4198 194.87 25.5098V35.5298C194.87 45.1398 190.94 52.5798 183.09 57.8198C182.7 58.0798 182.52 58.5698 182.67 59.0098L198.13 106.26C198.35 106.94 197.85 107.63 197.14 107.63H183.24C182.78 107.63 182.38 107.33 182.24 106.9L168.22 62.2098C168.08 61.7698 167.68 61.4798 167.22 61.4798H159.4C158.82 61.4798 158.36 61.9498 158.36 62.5198V106.58C158.36 107.16 157.89 107.62 157.31 107.62H144.18C143.62 107.63 143.15 107.17 143.15 106.59ZM177.04 44.6198C177.08 44.5798 177.11 44.5398 177.14 44.4998C178.05 43.3198 178.73 42.0098 179.12 40.5398C179.52 39.0498 179.66 37.3598 179.66 35.5298V25.4598C179.66 22.1298 178.77 19.4098 176.94 17.3698C175.11 15.3398 172.54 14.2898 169.23 14.2898H159.41C158.83 14.2898 158.37 14.7598 158.37 15.3398V46.8898C158.37 47.4698 158.84 47.9298 159.41 47.9298H169.09C172.27 47.9398 174.92 46.8198 177.04 44.6198Z" fill="#101010"/>
<path d="M206.55 106.38L228.45 0.839766C228.55 0.349766 228.98 0.00976562 229.47 0.00976562H242.6C243.09 0.00976562 243.51 0.349766 243.62 0.829766L267.02 106.37C267.16 107.02 266.67 107.64 266 107.64H251.77C251.27 107.64 250.83 107.28 250.74 106.79L246.76 85.3198C246.67 84.8298 246.24 84.4698 245.73 84.4698H227.71C227.21 84.4698 226.77 84.8298 226.68 85.3198L222.7 106.79C222.61 107.29 222.18 107.64 221.67 107.64H207.57C206.91 107.63 206.42 107.03 206.55 106.38ZM230.62 70.1698H242.53C243.18 70.1698 243.68 69.5798 243.56 68.9298L237.61 37.3598C237.4 36.2198 235.77 36.2198 235.56 37.3598L229.61 68.9298C229.48 69.5698 229.97 70.1698 230.62 70.1698Z" fill="#101010"/>
<path d="M299.16 0C305.98 0 311.91 2.43 316.86 7.35C321.85 12.27 324.32 18.12 324.32 25.02V81.02C324.32 88.77 321.95 95.17 317.2 100.13C312.46 105.14 306.28 107.63 298.71 107.63H276.03C275.45 107.63 274.98 107.16 274.98 106.59V1.04C274.98 0.46 275.45 0 276.03 0H299.16ZM309.1 81.07V25.02C309.1 21.99 308.01 19.51 305.89 17.52C303.72 15.53 301.14 14.54 298.08 14.54H291.27C290.69 14.54 290.23 15.01 290.23 15.58V92.38C290.23 92.96 290.7 93.42 291.27 93.42H297.64C305.29 93.34 309.1 89.26 309.1 81.07Z" fill="#101010"/>
<path d="M336.55 10.95C338.98 7.58 342 4.89 345.7 2.93C349.4 0.98 353.25 0 357.24 0C361.13 0 364.78 0.78 368.19 2.4C371.6 3.96 374.42 6.16 376.71 8.9C378.95 11.64 380.51 14.42 381.38 17.31C382.21 20.14 382.65 23.27 382.65 26.65V80.52C382.65 83.7 382.36 86.48 381.77 88.83C381.19 91.23 379.97 93.86 378.07 96.85C376.17 99.78 373.4 102.32 369.7 104.48C366 106.58 362.01 107.66 357.73 107.66C352.77 107.66 348.24 106.39 344.1 103.85C339.96 101.31 337.04 98.42 335.44 95.2C333.79 91.97 332.81 89.38 332.52 87.43C332.23 85.47 332.04 83.18 332.04 80.54V26.64C332.04 23.46 332.38 20.68 333.06 18.23C333.68 15.79 334.9 13.35 336.55 10.95ZM365.75 19.31C363.66 16.48 360.93 15.01 357.52 15.01C355.72 15.01 353.97 15.5 352.22 16.53C350.47 17.56 349.25 18.63 348.57 19.85C347.89 21.07 347.45 22.29 347.21 23.57C347.02 24.84 346.92 25.92 346.92 26.75V80.66C346.92 81.74 347.02 82.86 347.17 84.13C347.32 85.4 348.19 87.11 349.7 89.26C351.21 91.41 353.84 92.49 357.54 92.49C359.44 92.49 361.14 92.05 362.65 91.12C364.16 90.24 365.28 89.21 365.96 88.04C366.64 86.87 367.08 85.79 367.27 84.72C367.47 83.65 367.61 82.28 367.61 80.61V26.79C367.61 24.69 367.51 23.22 367.37 22.34C367.26 21.51 366.68 20.48 365.75 19.31Z" fill="#101010"/>
<path d="M104.02 136.76H278.63C279.6 136.76 280.04 137.96 279.32 138.59L192.04 214.76C191.65 215.1 191.06 215.1 190.67 214.76L103.34 138.59C102.61 137.96 103.06 136.76 104.02 136.76Z" fill="#101010"/>
</g>
<defs>
<clipPath id="clip0_30_2">
<rect width="383" height="216" fill="white"/>
</clipPath>
</defs>
</svg>
